<svg width="48" height="48" viewBox="0 0 48 48" fill="none" xmlns="http://www.w3.org/2000/svg">
<path d="M46.2161 0H1.78394C0.798649 0 0 0.798344 0 1.78363V46.2161C0 47.2014 0.798649 47.9997 1.78394 47.9997H46.2161C47.2014 47.9997 48 47.2014 48 46.2161V1.78363C48 0.798344 47.2014 0 46.2161 0Z" fill="#71717A"/>
<path d="M23.9965 44.6255C35.3893 44.6255 44.6252 35.3896 44.6252 23.9968C44.6252 12.604 35.3893 3.36807 23.9965 3.36807C12.6036 3.36807 3.36804 12.604 3.36804 23.9968C3.36804 35.3896 12.6036 44.6255 23.9965 44.6255Z" fill="#1E1E1E"/>
<path d="M40.396 15.5072V18.8881C40.396 18.9808 40.3592 19.0696 40.2937 19.1351C40.2282 19.2006 40.1394 19.2374 40.0467 19.2374H12.7C12.6544 19.2374 12.6093 19.2465 12.5673 19.2641C12.5252 19.2817 12.4871 19.3076 12.4552 19.3401C12.4233 19.3726 12.3981 19.4112 12.3812 19.4535C12.3644 19.4959 12.3561 19.5412 12.3569 19.5867V22.0819C12.3561 22.1275 12.3644 22.1727 12.3812 22.2151C12.3981 22.2574 12.4233 22.296 12.4552 22.3285C12.4871 22.361 12.5252 22.3869 12.5673 22.4045C12.6093 22.4221 12.6544 22.4312 12.7 22.4312H20.8466C20.9376 22.4312 21.0249 22.4673 21.0892 22.5317C21.1536 22.596 21.1897 22.6833 21.1897 22.7743V26.1614C21.1897 26.253 21.1538 26.3409 21.0896 26.4063C21.0255 26.4716 20.9382 26.5091 20.8466 26.5107H12.7C12.6547 26.5099 12.6097 26.5182 12.5677 26.5351C12.5257 26.5521 12.4876 26.5773 12.4555 26.6093C12.4235 26.6414 12.3983 26.6795 12.3813 26.7215C12.3644 26.7635 12.3561 26.8086 12.3569 26.8538V32.5053C12.3569 32.598 12.3201 32.6868 12.2546 32.7523C12.1891 32.8178 12.1003 32.8546 12.0076 32.8546H7.94055C7.84899 32.853 7.76173 32.8155 7.69757 32.7501C7.6334 32.6848 7.59746 32.5969 7.59747 32.5053V15.5072C7.59746 15.4156 7.6334 15.3277 7.69757 15.2624C7.76173 15.197 7.84899 15.1595 7.94055 15.1579H40.0405C40.0869 15.1571 40.133 15.1655 40.1761 15.1826C40.2192 15.1998 40.2584 15.2254 40.2915 15.2579C40.3246 15.2905 40.3509 15.3293 40.3689 15.3721C40.3868 15.4148 40.396 15.4608 40.396 15.5072Z" fill="#EA4125"/>
<path d="M35.6364 22.4122H25.1755C25.0839 22.4122 24.996 22.4481 24.9307 22.5123C24.8653 22.5764 24.8278 22.6637 24.8262 22.7552V26.1424C24.8262 26.235 24.863 26.3239 24.9285 26.3894C24.994 26.4549 25.0829 26.4917 25.1755 26.4917H35.312C35.3576 26.4909 35.4029 26.4991 35.4452 26.516C35.4875 26.5329 35.5261 26.558 35.5586 26.59C35.5912 26.6219 35.617 26.66 35.6346 26.702C35.6522 26.7441 35.6613 26.7892 35.6613 26.8348V28.4067C35.6597 28.4983 35.6222 28.5855 35.5568 28.6497C35.4915 28.7139 35.4036 28.7498 35.312 28.7498H16.2429C16.1973 28.7498 16.1522 28.7589 16.1102 28.7765C16.0681 28.7941 16.03 28.82 15.9981 28.8525C15.9661 28.885 15.941 28.9236 15.9241 28.9659C15.9073 29.0082 15.899 29.0535 15.8998 29.0991V32.4863C15.899 32.5318 15.9073 32.5771 15.9241 32.6195C15.941 32.6618 15.9661 32.7004 15.9981 32.7329C16.03 32.7654 16.0681 32.7913 16.1102 32.8089C16.1522 32.8265 16.1973 32.8356 16.2429 32.8356H40.0465C40.1392 32.8356 40.228 32.7988 40.2935 32.7333C40.359 32.6678 40.3958 32.5789 40.3958 32.4863V22.7178C40.3958 22.6252 40.359 22.5363 40.2935 22.4708C40.228 22.4053 40.1392 22.3685 40.0465 22.3685L35.6364 22.4122Z" fill="#E7E7D8"/>
</svg>
