<svg width="77" height="77" viewBox="0 0 77 77" fill="none" xmlns="http://www.w3.org/2000/svg">
<path d="M74.0898 0H2.86035C1.28082 0 0 1.27984 0 2.85938V74.0898C0 75.6694 1.28082 76.9492 2.86035 76.9492H74.0898C75.6694 76.9492 76.9502 75.6694 76.9502 74.0898V2.85938C76.9502 1.27984 75.6694 0 74.0898 0Z" fill="#EA4125"/>
<path d="M38.4697 71.54C56.7338 71.54 71.54 56.7338 71.54 38.4697C71.54 20.2057 56.7338 5.39941 38.4697 5.39941C20.2057 5.39941 5.40039 20.2057 5.40039 38.4697C5.40039 56.7338 20.2057 71.54 38.4697 71.54Z" fill="#E7E7D8"/>
<path d="M64.7601 24.8596V30.2796C64.7601 30.4281 64.7012 30.5706 64.5961 30.6756C64.4911 30.7806 64.3487 30.8396 64.2001 30.8396H20.3701C20.2234 30.8422 20.0835 30.9024 19.9806 31.0072C19.8778 31.1119 19.8201 31.2528 19.8201 31.3996V35.3996C19.8201 35.5464 19.8778 35.6873 19.9806 35.7921C20.0835 35.8968 20.2234 35.957 20.3701 35.9596H33.4301C33.576 35.9596 33.7159 36.0175 33.8191 36.1207C33.9222 36.2238 33.9801 36.3637 33.9801 36.5096V41.9396C33.9802 42.0864 33.9225 42.2274 33.8197 42.3321C33.7168 42.4368 33.5769 42.497 33.4301 42.4996H20.3701C20.2243 42.4996 20.0844 42.5576 19.9812 42.6607C19.8781 42.7639 19.8201 42.9038 19.8201 43.0496V52.1096C19.8201 52.2582 19.7611 52.4005 19.6561 52.5056C19.5511 52.6106 19.4087 52.6696 19.2601 52.6696H12.7101C12.5634 52.667 12.4235 52.6068 12.3206 52.5021C12.2178 52.3973 12.1601 52.2564 12.1602 52.1096V24.8596C12.1601 24.7128 12.2178 24.5719 12.3206 24.4671C12.4235 24.3624 12.5634 24.3023 12.7101 24.2996H64.1701C64.2462 24.2956 64.3222 24.307 64.3937 24.3333C64.4651 24.3596 64.5304 24.4002 64.5857 24.4526C64.6409 24.5051 64.6848 24.5682 64.7148 24.6381C64.7448 24.7081 64.7602 24.7835 64.7601 24.8596Z" fill="#EA4125"/>
<path d="M57.1303 35.9294H40.3203C40.1735 35.9294 40.0326 35.987 39.9279 36.0898C39.8231 36.1927 39.7629 36.3326 39.7603 36.4794V41.9094C39.7603 42.0579 39.8193 42.2003 39.9243 42.3054C40.0294 42.4104 40.1718 42.4694 40.3203 42.4694H56.5703C56.6434 42.468 56.716 42.4813 56.7839 42.5083C56.8518 42.5353 56.9136 42.5757 56.9657 42.6269C57.0179 42.6781 57.0593 42.7391 57.0875 42.8065C57.1158 42.8739 57.1304 42.9463 57.1303 43.0193V45.5394C57.1277 45.6861 57.0675 45.826 56.9628 45.9289C56.8581 46.0318 56.7171 46.0894 56.5703 46.0894H26.0403C25.9672 46.0893 25.8949 46.1039 25.8275 46.1321C25.7601 46.1604 25.699 46.2018 25.6478 46.254C25.5966 46.3061 25.5563 46.3679 25.5293 46.4358C25.5023 46.5037 25.489 46.5763 25.4903 46.6494V52.0793C25.489 52.1524 25.5023 52.225 25.5293 52.2929C25.5563 52.3608 25.5966 52.4226 25.6478 52.4747C25.699 52.5269 25.7601 52.5683 25.8275 52.5966C25.8949 52.6248 25.9672 52.6394 26.0403 52.6393H64.2003C64.3488 52.6393 64.4913 52.5804 64.5963 52.4753C64.7013 52.3703 64.7603 52.2279 64.7603 52.0793V36.4194C64.7603 36.2709 64.7013 36.1284 64.5963 36.0234C64.4913 35.9184 64.3488 35.8594 64.2003 35.8594L57.1303 35.9294Z" fill="#1E1E1E"/>
</svg>
