<svg width="77" height="77" viewBox="0 0 77 77" fill="none" xmlns="http://www.w3.org/2000/svg">
<path d="M74.0898 0H2.85986C1.28033 0 0 1.28082 0 2.86035V74.0898C0 75.6694 1.28033 76.9502 2.85986 76.9502H74.0898C75.6694 76.9502 76.9502 75.6694 76.9502 74.0898V2.86035C76.9502 1.28082 75.6694 0 74.0898 0Z" fill="#E7E7D8"/>
<path d="M38.48 71.5498C56.744 71.5498 71.5498 56.7445 71.5498 38.4805C71.5498 20.2164 56.744 5.41016 38.48 5.41016C20.2159 5.41016 5.41016 20.2164 5.41016 38.4805C5.41016 56.7445 20.2159 71.5498 38.48 71.5498Z" fill="#1E1E1E"/>
<path d="M64.7704 24.8705V30.2905C64.7704 30.439 64.7114 30.5815 64.6064 30.6865C64.5014 30.7915 64.3589 30.8505 64.2104 30.8505H20.3804C20.2319 30.8505 20.0895 30.9096 19.9844 31.0146C19.8794 31.1196 19.8204 31.262 19.8204 31.4105V35.4105C19.823 35.5573 19.8832 35.6972 19.9879 35.8C20.0927 35.9029 20.2336 35.9605 20.3804 35.9605H33.3804C33.5289 35.9605 33.6714 36.0196 33.7764 36.1246C33.8814 36.2296 33.9404 36.372 33.9404 36.5205V41.9506C33.9378 42.0973 33.8776 42.2372 33.7729 42.3401C33.6682 42.443 33.5272 42.5006 33.3804 42.5005H20.3804C20.2319 42.5005 20.0895 42.5595 19.9844 42.6646C19.8794 42.7696 19.8204 42.912 19.8204 43.0605V52.0505C19.8205 52.1973 19.7628 52.3383 19.66 52.443C19.5571 52.5477 19.4172 52.6079 19.2704 52.6105H12.7504C12.6019 52.6105 12.4595 52.5516 12.3544 52.4465C12.2494 52.3415 12.1904 52.1991 12.1904 52.0505V24.8705C12.1904 24.722 12.2494 24.5796 12.3544 24.4745C12.4595 24.3695 12.6019 24.3105 12.7504 24.3105H64.2104C64.3589 24.3105 64.5014 24.3695 64.6064 24.4745C64.7114 24.5796 64.7704 24.722 64.7704 24.8705Z" fill="#EA4125"/>
<path d="M57.1393 35.9301H40.3293C40.1807 35.9301 40.0383 35.9891 39.9333 36.0941C39.8283 36.1991 39.7693 36.3416 39.7693 36.4901V41.9201C39.7719 42.0669 39.832 42.2068 39.9368 42.3096C40.0415 42.4125 40.1825 42.4701 40.3293 42.4701H56.5793C56.7278 42.4701 56.8702 42.5291 56.9752 42.6342C57.0803 42.7392 57.1393 42.8816 57.1393 43.0301V45.5401C57.1393 45.6886 57.0803 45.8311 56.9752 45.9361C56.8702 46.0411 56.7278 46.1001 56.5793 46.1001H26.0493C25.9007 46.1001 25.7583 46.1591 25.6533 46.2642C25.5483 46.3692 25.4893 46.5116 25.4893 46.6601V52.0501C25.4893 52.1986 25.5483 52.3411 25.6533 52.4461C25.7583 52.5511 25.9007 52.6101 26.0493 52.6101H64.2093C64.3578 52.6101 64.5002 52.5511 64.6052 52.4461C64.7103 52.3411 64.7693 52.1986 64.7693 52.0501V36.4301C64.7666 36.2807 64.7054 36.1383 64.5988 36.0335C64.4922 35.9288 64.3487 35.8701 64.1993 35.8701L57.1393 35.9301Z" fill="#E7E7D8"/>
</svg>
